<svg  viewBox="0 0 175 175" fill="none" xmlns="http://www.w3.org/2000/svg">
<path d="M34.1218 63.094L34.1297 63.1013L34.138 63.1083C34.6815 63.5682 35.502 63.7422 36.4766 63.7422H41.2734V109.711H36.4766C35.4993 109.711 34.6746 109.901 34.1299 110.399C33.603 110.848 33.3516 111.462 33.3516 112.18C33.3516 112.879 33.611 113.482 34.1218 113.953C34.6664 114.456 35.4945 114.648 36.4766 114.648H52.9766C53.9846 114.648 54.8313 114.458 55.3782 113.953C55.889 113.482 56.1484 112.879 56.1484 112.18C56.1484 111.462 55.897 110.848 55.3701 110.399C54.8229 109.899 53.9796 109.711 52.9766 109.711H46.2109V92.9025L53.7544 86.1178C57.7666 87.4157 61.112 89.6177 63.8016 92.7256L63.8032 92.7274C65.1639 94.2847 66.7108 96.8525 68.4396 100.466C70.1646 104.071 72.0569 108.688 74.1163 114.32L74.2364 114.648H74.5859H82.1797C83.1877 114.648 84.0344 114.458 84.5813 113.953C85.0921 113.482 85.3516 112.879 85.3516 112.18C85.3516 111.462 85.1001 110.848 84.5732 110.399C84.0261 109.899 83.1827 109.711 82.1797 109.711H77.5962C74.6679 102.401 72.636 97.7095 71.5086 95.6735C69.5243 92.0201 67.4471 89.1741 65.2695 87.1567C63.2577 85.2928 60.7771 83.7249 57.8367 82.4475L78.7612 63.7422H80.1641C81.1386 63.7422 81.9591 63.5682 82.5027 63.1083L82.5109 63.1013L82.5188 63.094C83.0358 62.6167 83.2891 61.9952 83.2891 61.2734C83.2891 60.5554 83.0376 59.9422 82.5108 59.4924C81.9661 58.9952 81.1413 58.8047 80.1641 58.8047H68.5859C67.5829 58.8047 66.7395 58.9931 66.1924 59.4924C65.6655 59.9422 65.4141 60.5554 65.4141 61.2734C65.4141 61.9952 65.6673 62.6167 66.1843 63.094L66.1922 63.1013L66.2005 63.1083C66.7461 63.5699 67.5851 63.7422 68.5859 63.7422H71.5861L46.2109 86.3611V63.7422H52.9766C53.9774 63.7422 54.8164 63.5699 55.362 63.1083L55.3703 63.1013L55.3782 63.094C55.8952 62.6167 56.1484 61.9952 56.1484 61.2734C56.1484 60.5554 55.897 59.9422 55.3701 59.4924C54.823 58.9931 53.9796 58.8047 52.9766 58.8047H36.4766C35.4993 58.8047 34.6746 58.9952 34.1299 59.4924C33.603 59.9422 33.3516 60.5554 33.3516 61.2734C33.3516 61.9952 33.6048 62.6167 34.1218 63.094ZM99.6122 106.721L99.6134 106.723C101.557 109.877 103.927 112.255 106.731 113.834C109.534 115.412 112.729 116.195 116.305 116.195C121.659 116.195 126.24 114.266 130.021 110.421C133.805 106.572 135.695 101.803 135.695 96.1484V63.7422H138.523C139.498 63.7422 140.319 63.5682 140.862 63.1083L140.87 63.1013L140.878 63.094C141.395 62.6167 141.648 61.9952 141.648 61.2734C141.648 60.5555 141.397 59.9423 140.87 59.4925C140.326 58.9952 139.501 58.8047 138.523 58.8047H123.992C123.015 58.8047 122.19 58.9952 121.645 59.4925C121.119 59.9423 120.867 60.5555 120.867 61.2734C120.867 61.9952 121.12 62.6167 121.637 63.094L121.645 63.1013L121.654 63.1083C122.197 63.5682 123.018 63.7422 123.992 63.7422H130.758V96.1484C130.758 99.1493 129.971 101.834 128.403 104.217L128.4 104.221C126.843 106.634 125.025 108.398 122.954 109.539L122.951 109.54C120.906 110.683 118.631 111.258 116.117 111.258C112.196 111.258 108.807 109.801 105.928 106.861C103.053 103.926 101.617 100.365 101.617 96.1484V63.7422H108.383C109.357 63.7422 110.178 63.5682 110.721 63.1083L110.73 63.1013L110.738 63.094C111.255 62.6167 111.508 61.9952 111.508 61.2734C111.508 60.5555 111.256 59.9423 110.73 59.4925C110.185 58.9952 109.36 58.8047 108.383 58.8047H93.8516C92.8901 58.8047 92.0796 58.9586 91.5627 59.3893L91.5524 59.3979L91.5426 59.407C91.0038 59.9073 90.7266 60.5398 90.7266 61.2734C90.7266 61.9952 90.9798 62.6167 91.4968 63.094L91.5047 63.1013L91.513 63.1083C92.0565 63.5682 92.877 63.7422 93.8516 63.7422H96.6797V96.1484C96.6797 99.9879 97.6569 103.516 99.6122 106.721Z" fill="black" stroke="black"/>
<rect x="3.5" y="3.5" width="168" height="168" rx="84" stroke="black" stroke-width="7"/>
</svg>
